<svg width="155" height="150" viewBox="0 0 155 150" fill="none" xmlns="http://www.w3.org/2000/svg">
<g clip-path="url(#clip0_823_4639)">
<path fill-rule="evenodd" clip-rule="evenodd" d="M77.4867 -1.08288e-06C35.0222 -1.08288e-06 0.587891 34.428 0.587891 76.8988C0.587891 110.875 22.6217 139.7 53.176 149.868C57.0191 150.58 58.4301 148.2 58.4301 146.169C58.4301 144.335 58.3588 138.277 58.3257 131.852C36.9324 136.503 32.4181 122.779 32.4181 122.779C28.92 113.89 23.8799 111.527 23.8799 111.527C16.9029 106.754 24.4058 106.852 24.4058 106.852C32.1278 107.393 36.1938 114.778 36.1938 114.778C43.0524 126.533 54.1833 123.134 58.5714 121.169C59.2616 116.199 61.2545 112.805 63.4537 110.886C46.3734 108.942 28.4183 102.348 28.4183 72.8824C28.4183 64.4868 31.4223 57.627 36.3415 52.2417C35.5431 50.3036 32.9109 42.4836 37.0864 31.8913C37.0864 31.8913 43.5439 29.8246 58.2391 39.7737C64.3731 38.0699 70.9516 37.2155 77.4867 37.1862C84.0219 37.2155 90.6054 38.0699 96.7509 39.7737C111.428 29.8246 117.877 31.8913 117.877 31.8913C122.062 42.4836 119.429 50.3036 118.631 52.2417C123.561 57.627 126.545 64.4868 126.545 72.8824C126.545 102.418 108.555 108.921 91.4318 110.825C94.1901 113.211 96.6477 117.891 96.6477 125.066C96.6477 135.355 96.5586 143.636 96.5586 146.169C96.5586 148.215 97.9428 150.613 101.841 149.858C132.378 139.678 154.384 110.863 154.384 76.8988C154.384 34.428 119.955 -1.08288e-06 77.4867 -1.08288e-06" fill="#1B1817"/>
<path d="M29.7133 110.41C29.5439 110.793 28.9429 110.906 28.3953 110.644C27.8375 110.393 27.5243 109.872 27.7051 109.489C27.8706 109.097 28.473 108.987 29.0295 109.248C29.5885 109.501 29.9068 110.027 29.7133 110.41Z" fill="#1B1817"/>
<path d="M32.8279 113.884C32.4612 114.224 31.7443 114.066 31.2578 113.528C30.7548 112.992 30.6606 112.275 31.0324 111.93C31.4106 111.592 32.1059 111.751 32.6102 112.286C33.1132 112.828 33.2112 113.54 32.8279 113.884Z" fill="#1B1817"/>
<path d="M35.86 118.313C35.3888 118.64 34.6184 118.333 34.1421 117.649C33.671 116.965 33.671 116.145 34.1523 115.817C34.6299 115.488 35.3888 115.785 35.8714 116.462C36.3413 117.158 36.3413 117.978 35.86 118.313" fill="#1B1817"/>
<path d="M40.0139 122.591C39.5924 123.056 38.6946 122.931 38.0375 122.297C37.3652 121.677 37.178 120.797 37.6008 120.332C38.0273 119.866 38.9302 119.997 39.5924 120.626C40.2596 121.245 40.4634 122.132 40.0139 122.591Z" fill="#1B1817"/>
<path d="M45.744 125.076C45.5581 125.678 44.6934 125.952 43.8224 125.696C42.9527 125.432 42.3835 124.727 42.5592 124.118C42.74 123.512 43.6085 123.227 44.4859 123.501C45.3543 123.763 45.9248 124.463 45.744 125.076Z" fill="#1B1817"/>
<path d="M52.0374 125.537C52.0591 126.171 51.3205 126.697 50.4062 126.708C49.4868 126.729 48.7431 126.215 48.7329 125.591C48.7329 124.951 49.4549 124.43 50.3743 124.415C51.2886 124.397 52.0374 124.906 52.0374 125.537Z" fill="#1B1817"/>
<path d="M57.8939 124.54C58.0034 125.159 57.368 125.794 56.46 125.963C55.5674 126.126 54.7409 125.744 54.6276 125.131C54.5168 124.496 55.1637 123.861 56.0551 123.697C56.9643 123.539 57.778 123.911 57.8939 124.54" fill="#1B1817"/>
</g>
<defs>
<clipPath id="clip0_823_4639">
<rect width="153.796" height="150" fill="white" transform="translate(0.587891)"/>
</clipPath>
</defs>
</svg>
