<svg width="152" height="150" viewBox="0 0 152 150" fill="none" xmlns="http://www.w3.org/2000/svg">
<g clip-path="url(#clip0_823_4633)">
<path d="M128.865 127.645H106.668V92.8829C106.668 84.5936 106.52 73.9227 95.1227 73.9227C83.5616 73.9227 81.7927 82.9542 81.7927 92.2794V127.642H59.5953V56.1579H80.9047V65.927H81.2031C83.3356 62.2807 86.4173 59.2811 90.1197 57.2477C93.8222 55.2142 98.0069 54.2231 102.228 54.3798C124.726 54.3798 128.874 69.178 128.874 88.4295L128.865 127.645ZM34.5494 46.3864C32.0017 46.3869 29.511 45.6319 27.3924 44.2168C25.2738 42.8018 23.6225 40.7903 22.6472 38.4367C21.6718 36.0831 21.4162 33.4931 21.9127 30.9943C22.4093 28.4954 23.6358 26.2 25.437 24.3982C27.2381 22.5963 29.5332 21.3691 32.0318 20.8716C34.5305 20.3741 37.1205 20.6288 39.4744 21.6033C41.8283 22.5778 43.8404 24.2285 45.2562 26.3466C46.672 28.4647 47.428 30.955 47.4285 33.5027C47.4288 35.1943 47.0958 36.8694 46.4488 38.4324C45.8017 39.9954 44.8532 41.4156 43.6573 42.6119C42.4613 43.8083 41.0414 44.7574 39.4786 45.405C37.9159 46.0526 36.241 46.3861 34.5494 46.3864V46.3864ZM45.648 127.645H23.4276V56.1579H45.648V127.645ZM139.931 0.0102065H12.2735C9.37602 -0.0224914 6.58397 1.09648 4.5111 3.12122C2.43822 5.14597 1.25411 7.91084 1.21875 10.8083V138.996C1.2529 141.894 2.43632 144.661 4.50912 146.688C6.58192 148.715 9.37459 149.836 12.2735 149.805H139.931C142.836 149.842 145.636 148.724 147.717 146.697C149.798 144.67 150.99 141.9 151.03 138.996V10.799C150.988 7.89584 149.796 5.12783 147.715 3.10313C145.634 1.07844 142.834 -0.0373356 139.931 0.000953901" fill="#0A66C2"/>
</g>
<defs>
<clipPath id="clip0_823_4633">
<rect width="151.048" height="150" fill="white" transform="translate(0.171875)"/>
</clipPath>
</defs>
</svg>
