<svg width="271" height="150" viewBox="0 0 271 150" fill="none" xmlns="http://www.w3.org/2000/svg">
<g clip-path="url(#clip0_748_4411)">
<path d="M0.220215 123.06C0.220215 126.415 1.43655 128.951 3.86878 130.671C6.30111 132.39 8.90119 132.998 11.669 132.495C14.269 131.992 16.0933 131.069 17.142 129.728C18.1903 128.386 18.7147 126.163 18.7147 123.06V86.5744C18.7147 83.9742 17.8132 81.7724 16.0097 79.9694C14.2067 78.1659 12.005 77.2644 9.40472 77.2644C6.88846 77.2644 4.72876 78.1659 2.92541 79.9694C1.12205 81.7724 0.220215 83.974 0.220215 86.5744V123.06ZM29.1567 138.66C29.1567 141.093 30.0165 142.917 31.7358 144.133C33.4554 145.35 35.6572 145.957 38.3409 145.957C41.1087 145.957 43.3522 145.349 45.0718 144.133C46.7911 142.917 47.651 141.093 47.651 138.66V53.6121C47.651 51.0958 46.749 48.9359 44.946 47.1327C43.1426 45.3297 40.941 44.4279 38.3409 44.4279C35.8248 44.4279 33.6647 45.3297 31.8617 47.1327C30.0582 48.9362 29.1567 51.0958 29.1567 53.6121V138.66ZM57.9675 142.686C57.9675 145.119 58.8481 146.943 60.6095 148.159C62.3708 149.375 64.6354 149.983 67.4035 149.983C70.0873 149.983 72.289 149.375 74.0083 148.159C75.7278 146.943 76.5877 145.119 76.5877 142.686V65.0607C76.5877 62.4608 75.6859 60.2379 73.8827 58.3927C72.0794 56.5476 69.9198 55.6252 67.4035 55.6252C64.8032 55.6252 62.5807 56.5476 60.7355 58.3927C58.8904 60.2379 57.9677 62.4608 57.9677 65.0607V142.686H57.9675ZM86.904 143.063C86.904 147.677 90.0072 149.983 96.2139 149.983C102.42 149.983 105.524 147.677 105.524 143.063V17.2527C105.524 10.2072 103.385 6.22326 99.1073 5.30055C96.3395 4.6295 93.6134 5.42632 90.9296 7.69093C88.2456 9.95553 86.9036 13.1426 86.9036 17.2525V143.063H86.904ZM116.344 146.712V9.82975C116.344 5.46839 117.644 2.86832 120.244 2.02942C125.863 0.687533 131.441 0.0164795 136.977 0.0164795C149.809 0.0164795 161.762 3.03595 172.833 9.07489C183.904 15.1138 192.858 23.3544 199.693 33.7967C206.529 44.2394 210.492 55.7507 211.583 68.3321C216.699 66.1513 222.15 65.0609 227.938 65.0609C239.68 65.0609 249.724 69.2127 258.069 77.5163C266.415 85.82 270.588 95.8009 270.588 107.46C270.588 119.202 266.415 129.225 258.069 137.528C249.724 145.832 239.722 149.984 228.064 149.984L118.608 149.858C117.853 149.606 117.287 149.145 116.909 148.474C116.532 147.803 116.344 147.215 116.344 146.712V146.712Z" fill="url(#paint0_linear_748_4411)"/>
</g>
<defs>
<linearGradient id="paint0_linear_748_4411" x1="135.693" y1="4.09709" x2="135.693" y2="146.99" gradientUnits="userSpaceOnUse">
<stop stop-color="#FF8800"/>
<stop offset="1" stop-color="#FF3300"/>
</linearGradient>
<clipPath id="clip0_748_4411">
<rect width="270.368" height="150" fill="white" transform="translate(0.220215)"/>
</clipPath>
</defs>
</svg>
