<svg width="209" height="150" viewBox="0 0 209 150" fill="none" xmlns="http://www.w3.org/2000/svg">
<g clip-path="url(#clip0_823_4637)">
<path d="M108.698 149.803L65.989 148.99C52.1609 148.706 38.2983 149.272 24.7413 146.335C4.11793 141.946 2.6569 120.428 1.12808 102.378C-0.978469 77.0018 -0.16296 51.1653 3.81238 26.0012C6.05658 11.8814 14.8885 3.45609 28.5466 2.53925C74.653 -0.788083 121.066 -0.393758 167.07 1.15856C171.929 1.30087 176.821 2.07866 181.612 2.96399C205.26 7.28204 205.837 31.6673 207.37 52.1951C208.899 72.9347 208.253 93.7808 205.331 114.379C202.987 131.434 198.502 145.736 179.573 147.117C155.856 148.922 132.684 150.376 108.901 149.913C108.902 149.803 108.766 149.803 108.698 149.803ZM83.5892 106.625C101.462 95.936 118.993 85.425 136.763 74.8075C118.857 64.1183 101.359 53.6073 83.5892 42.9898V106.625Z" fill="#FF0000"/>
</g>
<defs>
<clipPath id="clip0_823_4637">
<rect width="208.172" height="150" fill="white"/>
</clipPath>
</defs>
</svg>
