<svg width="68" height="36" viewBox="0 0 68 36" fill="none" xmlns="http://www.w3.org/2000/svg">
<g filter="url(#filter0_d_90_522)">
<path d="M2 17C2 8.16344 9.16344 1 18 1H50C58.8366 1 66 8.16344 66 17V17C66 25.8366 58.8366 33 50 33H18C9.16344 33 2 25.8366 2 17V17Z" fill="#4C4DDC"/>
<path fill-rule="evenodd" clip-rule="evenodd" d="M13.9403 8.43149C14.1195 8.61066 14.1728 8.88027 14.0752 9.11411C13.7048 10.0016 13.5 10.9761 13.5 12.0001C13.5 16.1422 16.8579 19.5001 21 19.5001C22.0239 19.5001 22.9984 19.2952 23.8859 18.9249C24.1198 18.8273 24.3894 18.8806 24.5686 19.0597C24.7477 19.2389 24.801 19.5085 24.7034 19.7424C23.3849 22.9023 20.2652 25.1251 16.625 25.1251C11.7925 25.1251 7.875 21.2075 7.875 16.3751C7.875 12.7348 10.0978 9.61518 13.2577 8.29663C13.4915 8.19906 13.7612 8.25232 13.9403 8.43149Z" fill="#DBDBFF"/>
</g>
<defs>
<filter id="filter0_d_90_522" x="0" y="0" width="68" height="36" filterUnits="userSpaceOnUse" color-interpolation-filters="sRGB">
<feFlood flood-opacity="0" result="BackgroundImageFix"/>
<feColorMatrix in="SourceAlpha" type="matrix" values="0 0 0 0 0 0 0 0 0 0 0 0 0 0 0 0 0 0 127 0" result="hardAlpha"/>
<feOffset dy="1"/>
<feGaussianBlur stdDeviation="1"/>
<feColorMatrix type="matrix" values="0 0 0 0 0.0627451 0 0 0 0 0.0941176 0 0 0 0 0.156863 0 0 0 0.05 0"/>
<feBlend mode="normal" in2="BackgroundImageFix" result="effect1_dropShadow_90_522"/>
<feBlend mode="normal" in="SourceGraphic" in2="effect1_dropShadow_90_522" result="shape"/>
</filter>
</defs>
</svg>
