<svg width="68" height="36" viewBox="0 0 68 36" fill="none" xmlns="http://www.w3.org/2000/svg">
<g filter="url(#filter0_d_90_515)">
<path d="M52 8.875C52.3452 8.875 52.625 9.15482 52.625 9.5V11.375C52.625 11.7202 52.3452 12 52 12C51.6548 12 51.375 11.7202 51.375 11.375V9.5C51.375 9.15482 51.6548 8.875 52 8.875Z" fill="#F59E0B"/>
<path d="M48.25 17C48.25 14.9289 49.9289 13.25 52 13.25C54.0711 13.25 55.75 14.9289 55.75 17C55.75 19.0711 54.0711 20.75 52 20.75C49.9289 20.75 48.25 19.0711 48.25 17Z" fill="#F59E0B"/>
<path d="M57.7453 12.1386C57.9894 11.8945 57.9894 11.4988 57.7453 11.2547C57.5012 11.0107 57.1055 11.0107 56.8614 11.2547L55.5356 12.5806C55.2915 12.8246 55.2915 13.2204 55.5356 13.4644C55.7797 13.7085 56.1754 13.7085 56.4195 13.4644L57.7453 12.1386Z" fill="#F59E0B"/>
<path d="M60.125 17C60.125 17.3452 59.8452 17.625 59.5 17.625H57.625C57.2798 17.625 57 17.3452 57 17C57 16.6548 57.2798 16.375 57.625 16.375H59.5C59.8452 16.375 60.125 16.6548 60.125 17Z" fill="#F59E0B"/>
<path d="M56.8613 22.7452C57.1054 22.9893 57.5011 22.9893 57.7452 22.7452C57.9893 22.5011 57.9893 22.1054 57.7452 21.8613L56.4194 20.5355C56.1753 20.2914 55.7796 20.2914 55.5355 20.5355C55.2914 20.7796 55.2914 21.1753 55.5355 21.4194L56.8613 22.7452Z" fill="#F59E0B"/>
<path d="M52 22C52.3452 22 52.625 22.2798 52.625 22.625V24.5C52.625 24.8452 52.3452 25.125 52 25.125C51.6548 25.125 51.375 24.8452 51.375 24.5V22.625C51.375 22.2798 51.6548 22 52 22Z" fill="#F59E0B"/>
<path d="M48.4646 21.4194C48.7087 21.1753 48.7087 20.7796 48.4646 20.5355C48.2205 20.2914 47.8248 20.2914 47.5807 20.5355L46.2549 21.8613C46.0108 22.1054 46.0108 22.5011 46.2549 22.7452C46.499 22.9893 46.8947 22.9893 47.1388 22.7452L48.4646 21.4194Z" fill="#F59E0B"/>
<path d="M47 17C47 17.3452 46.7202 17.625 46.375 17.625H44.5C44.1548 17.625 43.875 17.3452 43.875 17C43.875 16.6548 44.1548 16.375 44.5 16.375H46.375C46.7202 16.375 47 16.6548 47 17Z" fill="#F59E0B"/>
<path d="M47.5806 13.4644C47.8247 13.7085 48.2204 13.7085 48.4645 13.4644C48.7086 13.2204 48.7086 12.8246 48.4645 12.5805L47.1387 11.2547C46.8946 11.0106 46.4989 11.0106 46.2548 11.2547C46.0107 11.4988 46.0107 11.8945 46.2548 12.1386L47.5806 13.4644Z" fill="#F59E0B"/>
</g>
<defs>
<filter id="filter0_d_90_515" x="0" y="0" width="68" height="36" filterUnits="userSpaceOnUse" color-interpolation-filters="sRGB">
<feFlood flood-opacity="0" result="BackgroundImageFix"/>
<feColorMatrix in="SourceAlpha" type="matrix" values="0 0 0 0 0 0 0 0 0 0 0 0 0 0 0 0 0 0 127 0" result="hardAlpha"/>
<feOffset dy="1"/>
<feGaussianBlur stdDeviation="1"/>
<feColorMatrix type="matrix" values="0 0 0 0 0.0627451 0 0 0 0 0.0941176 0 0 0 0 0.156863 0 0 0 0.05 0"/>
<feBlend mode="normal" in2="BackgroundImageFix" result="effect1_dropShadow_90_515"/>
<feBlend mode="normal" in="SourceGraphic" in2="effect1_dropShadow_90_515" result="shape"/>
</filter>
</defs>
</svg>
