<svg width="20" height="21" viewBox="0 0 20 21" fill="none" xmlns="http://www.w3.org/2000/svg">
<g clip-path="url(#clip0_1843_2542)">
<path fill-rule="evenodd" clip-rule="evenodd" d="M5.70091 12.0929L6.11738 12.5082L6.94914 11.6764L6.53267 11.2611L4.42326 9.15056C4.19385 8.92115 4.19385 8.54938 4.42326 8.31879L9.81855 2.92467C10.0491 2.69409 10.4209 2.69409 10.6503 2.92467L16.0456 8.31879C16.275 8.54938 16.275 8.92115 16.0456 9.15056L13.9362 11.26L13.5209 11.6764L14.3527 12.5082L14.768 12.0917L16.8774 9.9835C17.5668 9.29409 17.5668 8.17644 16.8774 7.48703L11.4833 2.09173C10.7938 1.4035 9.6762 1.4035 8.98679 2.09173L3.59149 7.4882C2.90326 8.17762 2.90326 9.29526 3.59149 9.9835L5.70091 12.0941V12.0929ZM9.81855 13.0247L10.235 12.6094L10.6515 13.0247L14.1809 16.5541L13.3491 17.3859L10.8233 14.8611V20.5H9.64679V14.8611L7.12208 17.3859L6.29032 16.5541L9.81973 13.0247H9.81855Z" fill="#4B5565" stroke="#4B5565"/>
</g>
<defs>
<clipPath id="clip0_1843_2542">
<rect width="18.8235" height="20" fill="white" transform="translate(0.823486 0.499969)"/>
</clipPath>
</defs>
</svg>
