<svg width="150" height="150" viewBox="0 0 150 150" fill="none" xmlns="http://www.w3.org/2000/svg">
<path d="M35.3906 53.7891H63.6328V56.0156H37.9688V72.8906H62.1094V75.1172H37.9688V93.6328H63.9844V95.8594H35.3906V53.7891ZM66.2109 53.7891H69.2578L82.6172 72.3047L96.0938 53.7891L114.609 30.3516L84.1406 74.2969L99.8437 95.8594H96.6797L82.5 76.1719L68.2031 95.8594H65.1562L80.9766 74.2969L66.2109 53.7891V53.7891ZM101.016 56.0156V53.7891H133.242V56.0156H118.359V95.8594H115.781V56.0156H101.016ZM0 53.7891H3.16406L47.9297 120.352L29.4141 95.8594L2.69531 56.9531L2.57813 95.8594H0V53.7891ZM133.008 92.9297C133.594 92.9297 133.945 92.5781 133.945 91.9922C133.945 91.4062 133.594 91.0547 133.008 91.0547C132.422 91.0547 132.07 91.4062 132.07 91.9922C132.07 92.5781 132.539 92.9297 133.008 92.9297ZM135.586 90.4687C135.586 91.9922 136.758 93.0469 138.398 93.0469C140.156 93.0469 141.211 91.9922 141.211 90.1172V83.6719H139.805V90.1172C139.805 91.1719 139.336 91.6406 138.398 91.6406C137.578 91.6406 136.992 91.1719 136.992 90.3516H135.586V90.4687ZM142.969 90.3516C143.086 91.9922 144.375 93.0469 146.484 93.0469C148.594 93.0469 150 91.9922 150 90.2344C150 88.8281 149.18 88.125 147.422 87.6563L146.367 87.4219C145.195 87.1875 144.727 86.7187 144.727 86.1328C144.727 85.3125 145.43 84.7266 146.602 84.7266C147.656 84.7266 148.359 85.1953 148.477 86.1328H149.883C149.766 84.6094 148.477 83.5547 146.602 83.5547C144.609 83.5547 143.32 84.6094 143.32 86.25C143.32 87.5391 144.023 88.3594 145.664 88.7109L146.836 88.9453C148.008 89.1797 148.594 89.6484 148.594 90.3516C148.594 91.1719 147.773 91.7578 146.602 91.7578C145.43 91.7578 144.492 91.1719 144.375 90.3516H142.969V90.3516Z" fill="black"/>
</svg>
