<svg width="150" height="150" viewBox="0 0 150 150" fill="none" xmlns="http://www.w3.org/2000/svg">
<path d="M75 88.3594C82.3782 88.3594 88.3594 82.3782 88.3594 75C88.3594 67.6218 82.3782 61.6406 75 61.6406C67.6218 61.6406 61.6406 67.6218 61.6406 75C61.6406 82.3782 67.6218 88.3594 75 88.3594Z" fill="#61DAFB"/>
<path d="M125.742 52.9687C123.164 52.0312 120.469 51.0938 117.656 50.2734C118.359 47.4609 118.945 44.6484 119.414 41.9531C121.875 26.4844 119.18 15.5859 111.68 11.3672C109.453 10.0781 106.992 9.49219 104.18 9.49219C95.9766 9.49219 85.5469 15.5859 75 25.7812C64.4531 15.5859 54.0234 9.49219 45.8203 9.49219C43.0078 9.49219 40.5469 10.0781 38.3203 11.3672C30.8203 15.7031 28.125 26.6016 30.5859 41.9531C31.0547 44.6484 31.6406 47.4609 32.3438 50.2734C29.5313 51.0938 26.8359 51.9141 24.2578 52.9687C9.60938 58.5937 1.64062 66.3281 1.64062 75C1.64062 83.6719 9.72656 91.4063 24.2578 97.0313C26.8359 97.9688 29.5313 98.9063 32.3438 99.7266C31.6406 102.539 31.0547 105.352 30.5859 108.047C28.125 123.516 30.8203 134.414 38.3203 138.633C40.5469 139.922 43.0078 140.508 45.8203 140.508C54.1406 140.508 64.5703 134.414 75 124.219C85.5469 134.414 95.9766 140.508 104.18 140.508C106.992 140.508 109.453 139.922 111.68 138.633C119.18 134.297 121.875 123.398 119.414 108.047C118.945 105.352 118.359 102.539 117.656 99.7266C120.469 98.9063 123.164 98.0859 125.742 97.0313C140.391 91.4063 148.359 83.6719 148.359 75C148.359 66.3281 140.391 58.5937 125.742 52.9687V52.9687ZM108.398 17.2266C113.203 20.0391 114.844 28.7109 112.852 41.0156C112.5 43.4766 111.914 46.0547 111.211 48.75C105.117 47.3437 98.6719 46.4062 91.875 45.8203C87.8906 40.1953 83.7891 35.1563 79.6875 30.5859C88.3594 22.0312 97.1484 16.1719 104.297 16.1719C105.82 16.1719 107.227 16.5234 108.398 17.2266V17.2266ZM95.2734 86.7188C93.1641 90.4688 90.7031 94.2187 88.125 97.9688C83.7891 98.3203 79.4531 98.4375 75 98.4375C70.4297 98.4375 66.0937 98.3203 61.875 97.9688C59.2969 94.2187 56.9531 90.4688 54.8437 86.7188C52.6172 82.8516 50.5078 78.8672 48.6328 75C50.5078 71.1328 52.6172 67.1484 54.8437 63.2813C56.9531 59.5313 59.4141 55.7813 61.9922 52.0313C66.3281 51.6797 70.6641 51.5625 75.1172 51.5625C79.6875 51.5625 84.0234 51.6797 88.2422 52.0313C90.8203 55.7813 93.1641 59.5313 95.2734 63.2813C97.5 67.1484 99.6094 71.1328 101.484 75C99.4922 78.8672 97.5 82.7344 95.2734 86.7188ZM105 82.8516C106.758 86.9531 108.164 90.9375 109.453 94.9219C105.469 95.8594 101.25 96.5625 96.7969 97.1484C98.2031 94.9219 99.7266 92.5781 101.016 90.1172C102.422 87.6563 103.711 85.1953 105 82.8516ZM75 114.609C72.1875 111.563 69.4922 108.281 66.9141 104.883C69.6094 105 72.3047 105.117 75 105.117C77.6953 105.117 80.3906 105 83.0859 104.883C80.5078 108.281 77.8125 111.563 75 114.609ZM53.2031 97.0313C48.75 96.4453 44.5312 95.7422 40.5469 94.8047C41.8359 90.9375 43.2422 86.8359 45 82.7344C46.2891 85.0781 47.5781 87.5391 48.9844 89.8828C50.3906 92.4609 51.7969 94.6875 53.2031 97.0313V97.0313ZM45 67.1484C43.2422 63.0469 41.8359 59.0625 40.5469 55.0781C44.5312 54.1406 48.75 53.4375 53.2031 52.8516C51.7969 55.0781 50.2734 57.4219 48.9844 59.8828C47.5781 62.3437 46.2891 64.8047 45 67.1484V67.1484ZM75 35.3906C77.8125 38.4375 80.5078 41.7187 83.0859 45.1172C80.3906 45 77.6953 44.8828 75 44.8828C72.3047 44.8828 69.6094 45 66.9141 45.1172C69.4922 41.7187 72.1875 38.4375 75 35.3906ZM101.016 60L96.7969 52.9687C101.25 53.5547 105.469 54.2578 109.453 55.1953C108.164 59.0625 106.758 63.1641 105 67.2656C103.711 64.8047 102.422 62.3437 101.016 60ZM37.1484 41.0156C35.1563 28.7109 36.7969 20.0391 41.6016 17.2266C42.7734 16.5234 44.1797 16.1719 45.7031 16.1719C52.7344 16.1719 61.5234 21.9141 70.3125 30.5859C66.2109 35.0391 62.1094 40.1953 58.125 45.8203C51.3281 46.4062 44.8828 47.4609 38.7891 48.75C38.0859 46.0547 37.6172 43.4766 37.1484 41.0156V41.0156ZM8.20312 75C8.20312 69.4922 14.8828 63.6328 26.6016 59.2969C28.9453 58.3594 31.5234 57.5391 34.1016 56.8359C35.9766 62.6953 38.3203 68.9062 41.1328 75.1172C38.3203 81.3281 35.8594 87.4219 34.1016 93.2812C17.9297 88.5938 8.20312 81.5625 8.20312 75ZM41.6016 132.773C36.7969 129.961 35.1563 121.289 37.1484 108.984C37.5 106.523 38.0859 103.945 38.7891 101.25C44.8828 102.656 51.3281 103.594 58.125 104.18C62.1094 109.805 66.2109 114.844 70.3125 119.414C61.6406 127.969 52.8516 133.828 45.7031 133.828C44.1797 133.828 42.7734 133.477 41.6016 132.773ZM112.852 108.984C114.844 121.289 113.203 129.961 108.398 132.773C107.227 133.477 105.82 133.828 104.297 133.828C97.2656 133.828 88.4766 128.086 79.6875 119.414C83.7891 114.961 87.8906 109.805 91.875 104.18C98.6719 103.594 105.117 102.539 111.211 101.25C111.914 103.945 112.383 106.523 112.852 108.984V108.984ZM123.398 90.7031C121.055 91.6406 118.477 92.4609 115.898 93.1641C114.023 87.3047 111.68 81.0938 108.867 74.8828C111.68 68.6719 114.141 62.5781 115.898 56.7188C132.07 61.4063 141.797 68.4375 141.797 75C141.797 80.5078 135 86.3672 123.398 90.7031Z" fill="#61DAFB"/>
</svg>
