<svg width="151" height="150" viewBox="0 0 151 150" fill="none" xmlns="http://www.w3.org/2000/svg">
<path d="M75.0049 30.0024C55.0045 30.0024 42.5088 39.9985 37.5049 59.9989C45.0025 50.0017 53.7553 46.2528 63.7525 48.7524C69.4607 50.1751 73.54 54.3142 78.0576 58.9009C85.41 66.3622 93.9201 75.0001 112.505 75.0001C132.504 75.0001 145.001 65.0028 150.005 44.9978C142.506 55.0009 133.754 58.7497 123.756 56.2501C118.049 54.8263 113.974 50.6884 109.451 46.1017C102.103 38.6403 93.5955 30.0024 75.0049 30.0024V30.0024ZM37.5049 75.0001C17.5057 75.0001 5.00879 84.9974 0.00488281 105.002C7.50254 94.9993 16.2541 91.2505 26.2525 93.7501C31.9607 95.1739 36.04 99.3118 40.5576 103.899C47.91 111.36 56.4201 119.998 75.0049 119.998C95.0041 119.998 107.501 110.002 112.505 90.0013C105.006 99.9985 96.2545 103.747 86.2561 101.248C80.549 99.8251 76.4744 95.686 71.951 91.0993C64.6033 83.638 56.0955 75.0001 37.5049 75.0001Z" fill="#38B2AC"/>
</svg>
