<svg width="150" height="150" viewBox="0 0 150 150" fill="none" xmlns="http://www.w3.org/2000/svg">
<path d="M26.5664 55.0781H143.367V141.41H26.5664V55.0781Z" fill="white"/>
<path d="M1.75781 74.8945V148.137H148.242V1.65234H1.75781V74.8945ZM119.801 69.0352C123.309 69.8493 126.498 71.6843 128.965 74.3086C130.323 75.7224 131.503 77.2965 132.48 78.9961C132.48 79.1836 126.152 83.4609 122.297 85.8516C122.156 85.9453 121.594 85.3359 120.973 84.4102C120.269 83.1957 119.269 82.1794 118.066 81.456C116.863 80.7326 115.496 80.3258 114.094 80.2734C109.652 79.9687 106.793 82.3008 106.816 86.1328C106.78 87.0869 106.998 88.0335 107.449 88.875C108.422 90.9023 110.238 92.1094 115.934 94.5703C126.422 99.082 130.91 102.059 133.699 106.289C136.816 110.977 137.508 118.547 135.398 124.148C133.055 130.242 127.312 134.379 119.191 135.75C115.482 136.175 111.735 136.135 108.035 135.633C102.365 134.698 97.1424 131.976 93.1289 127.863C91.7813 126.375 89.1563 122.496 89.3203 122.215C89.7481 121.897 90.1985 121.611 90.668 121.359L96.0938 118.359L100.301 115.922L101.18 117.223C102.663 119.344 104.551 121.152 106.734 122.543C111.422 125.004 117.82 124.664 120.984 121.816C122.047 120.773 122.709 119.39 122.857 117.908C123.005 116.426 122.628 114.94 121.793 113.707C120.621 112.078 118.277 110.707 111.727 107.848C104.168 104.59 100.91 102.574 97.9336 99.3633C96.0754 97.2444 94.7034 94.7445 93.9141 92.0391C93.3252 88.9482 93.2382 85.7826 93.6562 82.6641C95.2148 75.3633 100.687 70.2656 108.68 68.7539C112.381 68.2959 116.13 68.3987 119.801 69.0586V69.0352ZM85.418 75.1758V81.1758H66.3984V135.352H52.9102V81.1641H33.8437V75.3047C33.7844 73.2841 33.8313 71.2618 33.9844 69.2461C34.0781 69.1406 45.7031 69.1406 59.7656 69.1406H85.3477L85.418 75.1758Z" fill="#007ACC"/>
</svg>
